<mxfile host="65bd71144e">
    <diagram id="5QBVcfV_Vy24DAq5RXXN" name="Página-1">
        <mxGraphModel dx="550" dy="474" grid="1" gridSize="10" guides="1" tooltips="1" connect="1" arrows="1" fold="1" page="1" pageScale="1" pageWidth="1169" pageHeight="827" math="0" shadow="0">
            <root>
                <mxCell id="0"/>
                <mxCell id="1" parent="0"/>
                <mxCell id="2" value="Usario" style="shape=umlActor;verticalLabelPosition=bottom;verticalAlign=top;html=1;outlineConnect=0;" parent="1" vertex="1">
                    <mxGeometry x="80" y="60" width="30" height="60" as="geometry"/>
                </mxCell>
                <mxCell id="4" value="Sistema" style="rounded=0;whiteSpace=wrap;html=1;" parent="1" vertex="1">
                    <mxGeometry x="260" y="70" width="120" height="60" as="geometry"/>
                </mxCell>
                <mxCell id="7" value="Base Datos" style="shape=cylinder3;whiteSpace=wrap;html=1;boundedLbl=1;backgroundOutline=1;size=15;" parent="1" vertex="1">
                    <mxGeometry x="530" y="50" width="60" height="80" as="geometry"/>
                </mxCell>
                <mxCell id="10" value="" style="endArrow=none;html=1;entryX=0;entryY=1;entryDx=0;entryDy=0;entryPerimeter=0;" parent="1" target="2" edge="1">
                    <mxGeometry width="50" height="50" relative="1" as="geometry">
                        <mxPoint x="80" y="490" as="sourcePoint"/>
                        <mxPoint x="430" y="210" as="targetPoint"/>
                    </mxGeometry>
                </mxCell>
                <mxCell id="11" value="" style="endArrow=none;html=1;" parent="1" target="4" edge="1">
                    <mxGeometry width="50" height="50" relative="1" as="geometry">
                        <mxPoint x="320" y="490" as="sourcePoint"/>
                        <mxPoint x="430" y="210" as="targetPoint"/>
                    </mxGeometry>
                </mxCell>
                <mxCell id="12" value="" style="endArrow=none;html=1;entryX=0.5;entryY=1;entryDx=0;entryDy=0;entryPerimeter=0;" parent="1" target="7" edge="1">
                    <mxGeometry width="50" height="50" relative="1" as="geometry">
                        <mxPoint x="560" y="480" as="sourcePoint"/>
                        <mxPoint x="430" y="210" as="targetPoint"/>
                    </mxGeometry>
                </mxCell>
                <mxCell id="13" value="Usuario Entra al Sistema" style="endArrow=classic;html=1;" parent="1" edge="1">
                    <mxGeometry width="50" height="50" relative="1" as="geometry">
                        <mxPoint x="80" y="160" as="sourcePoint"/>
                        <mxPoint x="320" y="160" as="targetPoint"/>
                    </mxGeometry>
                </mxCell>
                <mxCell id="14" value="Formulario de login" style="endArrow=classic;html=1;" parent="1" edge="1">
                    <mxGeometry width="50" height="50" relative="1" as="geometry">
                        <mxPoint x="320" y="200" as="sourcePoint"/>
                        <mxPoint x="80" y="200" as="targetPoint"/>
                    </mxGeometry>
                </mxCell>
                <mxCell id="15" value="LLena formulario envia datos" style="endArrow=classic;html=1;" parent="1" edge="1">
                    <mxGeometry width="50" height="50" relative="1" as="geometry">
                        <mxPoint x="80" y="240" as="sourcePoint"/>
                        <mxPoint x="320" y="240" as="targetPoint"/>
                    </mxGeometry>
                </mxCell>
                <mxCell id="16" value="Sistema Evalua que los campos esten completos" style="endArrow=classic;html=1;" parent="1" edge="1">
                    <mxGeometry width="50" height="50" relative="1" as="geometry">
                        <mxPoint x="320" y="280" as="sourcePoint"/>
                        <mxPoint x="320" y="320" as="targetPoint"/>
                        <Array as="points">
                            <mxPoint x="360" y="280"/>
                            <mxPoint x="360" y="320"/>
                        </Array>
                    </mxGeometry>
                </mxCell>
                <mxCell id="17" value="" style="endArrow=classic;html=1;" parent="1" edge="1">
                    <mxGeometry width="50" height="50" relative="1" as="geometry">
                        <mxPoint x="320" y="360" as="sourcePoint"/>
                        <mxPoint x="560" y="360" as="targetPoint"/>
                    </mxGeometry>
                </mxCell>
                <mxCell id="18" value="Text" style="edgeLabel;html=1;align=center;verticalAlign=middle;resizable=0;points=[];" parent="17" vertex="1" connectable="0">
                    <mxGeometry x="0.2325" y="-6" relative="1" as="geometry">
                        <mxPoint as="offset"/>
                    </mxGeometry>
                </mxCell>
                <mxCell id="19" value="Si estan completos consulto si el &lt;br&gt;usuario y contraseña son correcto" style="edgeLabel;html=1;align=center;verticalAlign=middle;resizable=0;points=[];" parent="17" vertex="1" connectable="0">
                    <mxGeometry x="-0.0925" y="5" relative="1" as="geometry">
                        <mxPoint as="offset"/>
                    </mxGeometry>
                </mxCell>
                <mxCell id="21" value="Respuesta OK" style="endArrow=classic;html=1;" parent="1" edge="1">
                    <mxGeometry width="50" height="50" relative="1" as="geometry">
                        <mxPoint x="560" y="400" as="sourcePoint"/>
                        <mxPoint x="320" y="400" as="targetPoint"/>
                    </mxGeometry>
                </mxCell>
                <mxCell id="23" value="Usuario Entra al sistema" style="endArrow=classic;html=1;fillColor=#60a917;strokeColor=#2D7600;" parent="1" edge="1">
                    <mxGeometry width="50" height="50" relative="1" as="geometry">
                        <mxPoint x="320" y="440" as="sourcePoint"/>
                        <mxPoint x="80" y="440" as="targetPoint"/>
                    </mxGeometry>
                </mxCell>
                <mxCell id="26" value="" style="endArrow=classic;html=1;fillColor=#a20025;strokeColor=#6F0000;dashed=1;dashPattern=8 8;" edge="1" parent="1">
                    <mxGeometry width="50" height="50" relative="1" as="geometry">
                        <mxPoint x="320" y="340" as="sourcePoint"/>
                        <mxPoint x="80" y="340" as="targetPoint"/>
                    </mxGeometry>
                </mxCell>
                <mxCell id="27" value="Error: Usuario y contraseña incorrectos" style="edgeLabel;html=1;align=center;verticalAlign=middle;resizable=0;points=[];" vertex="1" connectable="0" parent="26">
                    <mxGeometry x="0.2008" relative="1" as="geometry">
                        <mxPoint x="34" as="offset"/>
                    </mxGeometry>
                </mxCell>
                <mxCell id="29" value="Error no existe el usaurio&amp;nbsp;" style="endArrow=classic;html=1;dashed=1;dashPattern=8 8;fillColor=#a20025;strokeColor=#6F0000;" edge="1" parent="1">
                    <mxGeometry width="50" height="50" relative="1" as="geometry">
                        <mxPoint x="320" y="420" as="sourcePoint"/>
                        <mxPoint x="80" y="420" as="targetPoint"/>
                    </mxGeometry>
                </mxCell>
                <mxCell id="30" value="En caso catch: Error en el sistema" style="endArrow=classic;html=1;dashed=1;dashPattern=8 8;fillColor=#a20025;strokeColor=#6F0000;" edge="1" parent="1">
                    <mxGeometry width="50" height="50" relative="1" as="geometry">
                        <mxPoint x="320" y="470" as="sourcePoint"/>
                        <mxPoint x="80" y="470" as="targetPoint"/>
                    </mxGeometry>
                </mxCell>
            </root>
        </mxGraphModel>
    </diagram>
</mxfile>